<mxfile host="app.diagrams.net" modified="2024-06-20T02:23:11.858Z" agent="Mozilla/5.0 (Windows NT 10.0; Win64; x64) AppleWebKit/537.36 (KHTML, like Gecko) Chrome/126.0.0.0 Safari/537.36" etag="dFUC7_qeMIX7OM2EIy8C" version="24.5.5" type="github">
  <diagram name="Page-1" id="sXBIMeSk13Zd1Xr9uNzT">
    <mxGraphModel dx="1434" dy="738" grid="1" gridSize="10" guides="1" tooltips="1" connect="1" arrows="1" fold="1" page="1" pageScale="1" pageWidth="850" pageHeight="1100" math="0" shadow="0">
      <root>
        <mxCell id="0" />
        <mxCell id="1" parent="0" />
        <mxCell id="bNSj1-eQjXujiAF2y3s_-1" value="Bank" style="swimlane;fontStyle=1;align=center;verticalAlign=top;childLayout=stackLayout;horizontal=1;startSize=26;horizontalStack=0;resizeParent=1;resizeParentMax=0;resizeLast=0;collapsible=1;marginBottom=0;whiteSpace=wrap;html=1;" vertex="1" parent="1">
          <mxGeometry x="460" y="80" width="390" height="120" as="geometry" />
        </mxCell>
        <mxCell id="bNSj1-eQjXujiAF2y3s_-2" value="- accounts: dict" style="text;strokeColor=none;fillColor=none;align=left;verticalAlign=top;spacingLeft=4;spacingRight=4;overflow=hidden;rotatable=0;points=[[0,0.5],[1,0.5]];portConstraint=eastwest;whiteSpace=wrap;html=1;" vertex="1" parent="bNSj1-eQjXujiAF2y3s_-1">
          <mxGeometry y="26" width="390" height="26" as="geometry" />
        </mxCell>
        <mxCell id="bNSj1-eQjXujiAF2y3s_-3" value="" style="line;strokeWidth=1;fillColor=none;align=left;verticalAlign=middle;spacingTop=-1;spacingLeft=3;spacingRight=3;rotatable=0;labelPosition=right;points=[];portConstraint=eastwest;strokeColor=inherit;" vertex="1" parent="bNSj1-eQjXujiAF2y3s_-1">
          <mxGeometry y="52" width="390" height="8" as="geometry" />
        </mxCell>
        <mxCell id="bNSj1-eQjXujiAF2y3s_-4" value="+ __init__()&lt;div&gt;+ create_account(account_number: str, account_holder: str): boolean&lt;/div&gt;&lt;div&gt;+ get_account(account_number: str): Account&lt;/div&gt;" style="text;strokeColor=none;fillColor=none;align=left;verticalAlign=top;spacingLeft=4;spacingRight=4;overflow=hidden;rotatable=0;points=[[0,0.5],[1,0.5]];portConstraint=eastwest;whiteSpace=wrap;html=1;" vertex="1" parent="bNSj1-eQjXujiAF2y3s_-1">
          <mxGeometry y="60" width="390" height="60" as="geometry" />
        </mxCell>
        <mxCell id="bNSj1-eQjXujiAF2y3s_-5" value="Account" style="swimlane;fontStyle=1;align=center;verticalAlign=top;childLayout=stackLayout;horizontal=1;startSize=26;horizontalStack=0;resizeParent=1;resizeParentMax=0;resizeLast=0;collapsible=1;marginBottom=0;whiteSpace=wrap;html=1;" vertex="1" parent="1">
          <mxGeometry x="40" y="80" width="300" height="160" as="geometry" />
        </mxCell>
        <mxCell id="bNSj1-eQjXujiAF2y3s_-6" value="- account_number: string&lt;div&gt;- account_holder: string&lt;/div&gt;&lt;div&gt;- balance: float&lt;/div&gt;" style="text;strokeColor=none;fillColor=none;align=left;verticalAlign=top;spacingLeft=4;spacingRight=4;overflow=hidden;rotatable=0;points=[[0,0.5],[1,0.5]];portConstraint=eastwest;whiteSpace=wrap;html=1;" vertex="1" parent="bNSj1-eQjXujiAF2y3s_-5">
          <mxGeometry y="26" width="300" height="54" as="geometry" />
        </mxCell>
        <mxCell id="bNSj1-eQjXujiAF2y3s_-7" value="" style="line;strokeWidth=1;fillColor=none;align=left;verticalAlign=middle;spacingTop=-1;spacingLeft=3;spacingRight=3;rotatable=0;labelPosition=right;points=[];portConstraint=eastwest;strokeColor=inherit;" vertex="1" parent="bNSj1-eQjXujiAF2y3s_-5">
          <mxGeometry y="80" width="300" height="8" as="geometry" />
        </mxCell>
        <mxCell id="bNSj1-eQjXujiAF2y3s_-8" value="+ __initi__(account_number: str, account_holder: str)&lt;div&gt;+ deposit(amount: float): boolean&lt;/div&gt;&lt;div&gt;+ withdraw(amount: float): boolean&lt;/div&gt;&lt;div&gt;+ get_balance(): float&lt;/div&gt;" style="text;strokeColor=none;fillColor=none;align=left;verticalAlign=top;spacingLeft=4;spacingRight=4;overflow=hidden;rotatable=0;points=[[0,0.5],[1,0.5]];portConstraint=eastwest;whiteSpace=wrap;html=1;" vertex="1" parent="bNSj1-eQjXujiAF2y3s_-5">
          <mxGeometry y="88" width="300" height="72" as="geometry" />
        </mxCell>
        <mxCell id="bNSj1-eQjXujiAF2y3s_-10" value="1" style="endArrow=diamondThin;html=1;endSize=12;startArrow=none;startSize=14;startFill=0;align=left;verticalAlign=bottom;rounded=0;exitX=1;exitY=0.5;exitDx=0;exitDy=0;entryX=0;entryY=0.5;entryDx=0;entryDy=0;endFill=1;" edge="1" parent="1" source="bNSj1-eQjXujiAF2y3s_-6" target="bNSj1-eQjXujiAF2y3s_-2">
          <mxGeometry x="-1" y="3" relative="1" as="geometry">
            <mxPoint x="340" y="380" as="sourcePoint" />
            <mxPoint x="500" y="380" as="targetPoint" />
          </mxGeometry>
        </mxCell>
      </root>
    </mxGraphModel>
  </diagram>
</mxfile>
